<svg width="27" height="25" viewBox="0 0 27 25" fill="none" xmlns="http://www.w3.org/2000/svg">
<path d="M21.05 3.0321H6.34" stroke="#F6AEC2" stroke-width="0.7" stroke-miterlimit="10" stroke-linecap="round" stroke-linejoin="round"/>
<path d="M22.74 3.0321H24.14C25.38 3.0321 26.39 4.0421 26.39 5.2921V21.7021C26.39 22.9521 25.38 23.9621 24.14 23.9621H3.26C2.01 23.9621 1 22.9521 1 21.7021V5.2921C1 4.0421 2.01 3.0321 3.26 3.0321H4.65" stroke="#F6AEC2" stroke-width="0.7" stroke-miterlimit="10" stroke-linecap="round" stroke-linejoin="round"/>
<path d="M26.39 7.9121H1" stroke="#F6AEC2" stroke-width="0.7" stroke-miterlimit="10" stroke-linecap="round" stroke-linejoin="round"/>
<path d="M5.49694 5.06822C5.03361 5.06822 4.65453 4.68914 4.65453 4.22581V1.84241C4.65453 1.37909 5.03361 1 5.49694 1C5.96026 1 6.33935 1.37908 6.33935 1.84241V4.22581C6.33935 4.68914 5.96027 5.06822 5.49694 5.06822Z" stroke="#F6AEC2" stroke-width="0.7" stroke-miterlimit="10" stroke-linecap="round" stroke-linejoin="round"/>
<path d="M21.8931 5.06822C21.4297 5.06822 21.0507 4.68914 21.0507 4.22581V1.84241C21.0507 1.37909 21.4297 1 21.8931 1C22.3564 1 22.7355 1.37908 22.7355 1.84241V4.22581C22.7355 4.68914 22.3564 5.06822 21.8931 5.06822Z" stroke="#F6AEC2" stroke-width="0.7" stroke-miterlimit="10" stroke-linecap="round" stroke-linejoin="round"/>
<path d="M9.12409 12.7711H5.5769V14.7597H9.12409V12.7711Z" stroke="#F6AEC2" stroke-width="0.7" stroke-miterlimit="10" stroke-linecap="round" stroke-linejoin="round"/>
<path d="M15.5436 12.7711H11.9964V14.7597H15.5436V12.7711Z" stroke="#F6AEC2" stroke-width="0.7" stroke-miterlimit="10" stroke-linecap="round" stroke-linejoin="round"/>
<path d="M15.5436 16.7336H11.9964V18.7222H15.5436V16.7336Z" stroke="#F6AEC2" stroke-width="0.7" stroke-miterlimit="10" stroke-linecap="round" stroke-linejoin="round"/>
<path d="M21.8131 12.7711H18.2659V14.7597H21.8131V12.7711Z" stroke="#F6AEC2" stroke-width="0.7" stroke-miterlimit="10" stroke-linecap="round" stroke-linejoin="round"/>
<path d="M21.8131 16.7336H18.2659V18.7222H21.8131V16.7336Z" stroke="#F6AEC2" stroke-width="0.7" stroke-miterlimit="10" stroke-linecap="round" stroke-linejoin="round"/>
<path d="M9.21739 16.7336H5.6702V18.7222H9.21739V16.7336Z" stroke="#F6AEC2" stroke-width="0.7" stroke-miterlimit="10" stroke-linecap="round" stroke-linejoin="round"/>
<path d="M9.42682 4.82536H14.1877" stroke="#F6AEC2" stroke-width="0.7" stroke-miterlimit="10" stroke-linecap="round" stroke-linejoin="round"/>
<path d="M15.5435 4.82536H16.7436" stroke="#F6AEC2" stroke-width="0.7" stroke-miterlimit="10" stroke-linecap="round" stroke-linejoin="round"/>
</svg>
