<svg width="11" height="19" viewBox="0 0 11 19" fill="none" xmlns="http://www.w3.org/2000/svg">
<path d="M5.58463 8.04349C3.2734 7.44278 2.53014 6.82679 2.53014 5.85953C2.53014 4.74973 3.55339 3.97084 5.27918 3.97084C7.09151 3.97084 7.7635 4.83628 7.82459 6.10898H10.0747C10.0085 4.35265 8.93439 2.75413 6.80643 2.22978V0H3.75193V2.19923C1.7767 2.63195 0.18836 3.90466 0.18836 5.87481C0.18836 8.22676 2.13814 9.39765 4.97373 10.0798C7.52423 10.6907 8.02822 11.5816 8.02822 12.5387C8.02822 13.2361 7.53441 14.3561 5.27918 14.3561C3.18176 14.3561 2.35196 13.4143 2.24505 12.218H0C0.12727 14.4477 1.79197 15.695 3.75193 16.1175V18.327H6.80643V16.1379C8.78675 15.7561 10.37 14.6107 10.37 12.5183C10.37 9.63692 7.89586 8.6493 5.58463 8.04349Z" fill="#F6AEC2"/>
</svg>
