<svg width="26" height="26" viewBox="0 0 26 26" fill="none" xmlns="http://www.w3.org/2000/svg">
<path d="M1.75 7.75H8.43036C8.76593 9.04523 9.93427 10.0088 11.333 10.0088C12.7318 10.0088 13.9001 9.04523 14.2357 7.75H24.25C24.6641 7.75 25 7.41406 25 7C25 6.58594 24.6641 6.25 24.25 6.25H14.2357C13.9001 4.95477 12.7318 3.99121 11.333 3.99121C9.93427 3.99121 8.76593 4.95477 8.43036 6.25H1.75C1.33594 6.25 1 6.58594 1 7C1 7.41406 1.33594 7.75 1.75 7.75ZM11.333 5.49121C12.165 5.49121 12.8418 6.16797 12.8418 7C12.8418 7.83203 12.165 8.50879 11.333 8.50879C10.501 8.50879 9.82422 7.83203 9.82422 7C9.82422 6.16797 10.501 5.49121 11.333 5.49121Z" fill="#F6AEC2"/>
<path d="M24.25 12.25H22.6439C22.3083 10.9548 21.14 9.99121 19.7412 9.99121C18.3425 9.99121 17.1741 10.9548 16.8386 12.25H1.75C1.33594 12.25 1 12.5859 1 13C1 13.4141 1.33594 13.75 1.75 13.75H16.8386C17.1741 15.0452 18.3425 16.0088 19.7412 16.0088C21.14 16.0088 22.3083 15.0452 22.6439 13.75H24.25C24.6641 13.75 25 13.4141 25 13C25 12.5859 24.6641 12.25 24.25 12.25ZM19.7412 14.5088C18.9092 14.5088 18.2324 13.832 18.2324 13C18.2324 12.168 18.9092 11.4912 19.7412 11.4912C20.5732 11.4912 21.25 12.168 21.25 13C21.25 13.832 20.5732 14.5088 19.7412 14.5088Z" fill="#F6AEC2"/>
<path d="M24.25 18.25H9.71814C9.38263 16.9548 8.21436 15.9912 6.81641 15.9912C5.41766 15.9912 4.24933 16.9548 3.91376 18.25H1.75C1.33594 18.25 1 18.5859 1 19C1 19.4141 1.33594 19.75 1.75 19.75H3.91376C4.24933 21.0452 5.41766 22.0088 6.81641 22.0088C8.21436 22.0088 9.38263 21.0452 9.71814 19.75H24.25C24.6641 19.75 25 19.4141 25 19C25 18.5859 24.6641 18.25 24.25 18.25ZM6.81641 20.5088C5.98438 20.5088 5.30762 19.832 5.30762 19C5.30762 18.168 5.98438 17.4912 6.81641 17.4912C7.64746 17.4912 8.32422 18.168 8.32422 19C8.32422 19.832 7.64746 20.5088 6.81641 20.5088Z" fill="#F6AEC2"/>
</svg>
