<svg width="125" height="66" viewBox="0 0 125 66" fill="none" xmlns="http://www.w3.org/2000/svg">
<path d="M34.3602 10.7761V7.87393H80.8917V10.7761H34.3602Z" fill="#F6AEC2"/>
<path d="M15.7656 10.7761H2.9022V54.6925H80.8918V57.5947H0.000289917L0 7.87395L15.7656 7.87366C19.0979 7.87366 21.8091 4.3414 21.8091 0H24.7113C24.7113 4.3414 27.4226 7.87366 30.7549 7.87366V10.7759C27.4223 10.7759 24.7113 14.3081 24.7113 18.6495H21.8091C21.8091 14.3081 19.0979 10.7761 15.7656 10.7761Z" fill="#F6AEC2"/>
<path d="M97.773 54.6925H89.9533V57.5947H97.773V54.6925Z" fill="#F6AEC2"/>
<path d="M123.413 23.3969H124.864V7.87393H89.9533V10.7761H121.962V20.5815C115.992 21.3004 111.35 26.3969 111.35 32.5574C111.35 38.7199 115.992 43.8182 121.962 44.5368V54.6928H116.434C113.102 54.6928 110.391 51.1602 110.391 46.8188H107.489C107.489 51.1602 104.777 54.6922 101.445 54.6922V57.5944C104.777 57.5944 107.489 61.1269 107.489 65.4683H110.391C110.391 61.1304 113.097 57.6011 116.426 57.595H124.864V41.7217H123.413C118.362 41.7217 114.253 37.6107 114.253 32.5574C114.252 27.5061 118.362 23.3969 123.413 23.3969ZM108.94 59.5952C108.172 58.1792 107.137 56.9939 105.92 56.143C107.137 55.2924 108.172 54.1071 108.94 52.6911C109.707 54.1071 110.743 55.2924 111.959 56.143C110.743 56.9939 109.707 58.1792 108.94 59.5952Z" fill="#F6AEC2"/>
<path d="M86.7928 47.0516H83.8906V50.244H86.7928V47.0516Z" fill="#F6AEC2"/>
<path d="M86.7928 27.8971H83.8906V31.0895H86.7928V27.8971Z" fill="#F6AEC2"/>
<path d="M86.7928 34.2819H83.8906V37.4743H86.7928V34.2819Z" fill="#F6AEC2"/>
<path d="M86.7928 53.4364H83.8906V56.6288H86.7928V53.4364Z" fill="#F6AEC2"/>
<path d="M86.7928 40.6667H83.8906V43.8592H86.7928V40.6667Z" fill="#F6AEC2"/>
<path d="M86.7928 8.74258H83.8906V11.935H86.7928V8.74258Z" fill="#F6AEC2"/>
<path d="M86.7928 15.1274H83.8906V18.3198H86.7928V15.1274Z" fill="#F6AEC2"/>
<path d="M86.7928 21.5122H83.8906V24.7047H86.7928V21.5122Z" fill="#F6AEC2"/>
<path d="M97.6969 37.1017H94.7947V42.8762H97.6969V37.1017Z" fill="#F6AEC2"/>
<path d="M97.6969 21.5465H94.7947V34.1998H97.6969V21.5465Z" fill="#F6AEC2"/>
<path d="M102.896 21.5465H99.9938V42.8765H102.896V21.5465Z" fill="#F6AEC2"/>
<path d="M20.4749 9.32418C21.6918 10.1751 22.727 11.3604 23.4946 12.7763C24.262 11.3604 25.2975 10.1751 26.5141 9.32418C25.2975 8.47355 24.2623 7.28829 23.4946 5.87231C22.7273 7.28829 21.6918 8.47355 20.4749 9.32418Z" fill="white"/>
</svg>
